<?xml version="1.0" encoding="UTF-8" standalone="no"?>
<!-- Creator: CorelDRAW -->

<svg
   xml:space="preserve"
   width="374.54419mm"
   height="103.66879mm"
   style="clip-rule:evenodd;fill-rule:evenodd;image-rendering:optimizeQuality;shape-rendering:geometricPrecision;text-rendering:geometricPrecision"
   viewBox="0 0 374.54419 103.66879"
   version="1.1"
   id="svg12"
   sodipodi:docname="logo-ntso.svg"
   inkscape:export-filename="logo-ntso.png"
   inkscape:export-xdpi="96"
   inkscape:export-ydpi="96"
   xmlns:inkscape="http://www.inkscape.org/namespaces/inkscape"
   xmlns:sodipodi="http://sodipodi.sourceforge.net/DTD/sodipodi-0.dtd"
   xmlns="http://www.w3.org/2000/svg"
   xmlns:svg="http://www.w3.org/2000/svg"><sodipodi:namedview
   id="namedview14"
   pagecolor="#ffffff"
   bordercolor="#999999"
   borderopacity="1"
   inkscape:showpageshadow="0"
   inkscape:pageopacity="0"
   inkscape:pagecheckerboard="0"
   inkscape:deskcolor="#d1d1d1"
   inkscape:document-units="mm"
   showgrid="false" />
 
 <defs
   id="defs6"><style
     type="text/css"
     id="style4">
   <![CDATA[
    .fil0 {fill:#1e3a8a}
   ]]>
  </style></defs>
 <g
   id="Ebene_x0020_1"
   inkscape:label="Ebene 1"
   inkscape:groupmode="layer"
   transform="translate(-21.095799,-173.23031)">
  <metadata
   id="CorelCorpID_0Corel-Layer" />
  <path
   class="fil0"
   d="m 45.6987,249.835 h -9.9489 l 2.2005,-36.1527 -8.7783,36.1527 h -8.0762 l 16.48,-67.8911 h 11.0023 l -1.9898,30.9593 7.5377,-30.9593 h 8.076 z m 24.5794,-16.677 1.8494,0.404 -0.1405,0.5193 -0.1873,0.606 -0.2107,0.6348 -0.2574,0.7213 -0.3044,0.7501 -0.3277,0.8368 -0.3746,0.8945 -0.3979,0.9232 -0.4681,0.981 -0.4916,0.9521 -0.5619,0.9521 -0.6085,0.9233 -0.6322,0.9232 -0.7023,0.9233 -0.7491,0.8945 -0.7958,0.8944 -0.4213,0.4329 -0.4215,0.404 -0.4213,0.3751 -0.4447,0.3173 -0.4449,0.3173 -0.4681,0.3175 -0.4683,0.2597 -0.4914,0.2308 -0.4683,0.202 -0.515,0.1732 -0.4915,0.1441 -0.515,0.1443 -0.5151,0.0865 -0.5384,0.0577 -0.5384,0.0578 h -0.5618 -0.398 l -0.3745,-0.0288 -0.3745,-0.0579 -0.3512,-0.0576 -0.3278,-0.0865 -0.3275,-0.1155 -0.3044,-0.1441 -0.3044,-0.1444 -0.2808,-0.1731 -0.281,-0.1732 -0.2574,-0.2308 -0.2341,-0.2309 -0.2342,-0.2596 -0.2107,-0.2597 -0.2106,-0.2884 -0.1873,-0.3175 -0.1639,-0.3462 -0.1638,-0.3173 -0.1639,-0.3751 -0.1403,-0.3752 -0.1172,-0.3749 -0.1171,-0.404 -0.0935,-0.404 -0.0937,-0.4328 -0.0936,-0.4329 -0.0468,-0.4328 -0.0703,-0.4904 -0.0234,-0.4617 -0.0468,-0.4904 v -0.5193 l -0.0233,-0.5196 0.0233,-0.5192 0.0468,-1.0965 0.0702,-1.1253 0.1171,-1.1541 0.1639,-1.1829 0.1872,-1.2406 0.2341,-1.2408 0.2576,-1.2694 0.3042,-1.2985 0.3979,-1.4137 0.3981,-1.3561 0.398,-1.3273 0.4213,-1.3273 0.4213,-1.2982 0.4215,-1.2696 0.4447,-1.2406 0.4447,-1.2408 0.4448,-1.2117 0.4681,-1.183 0.4917,-1.1543 0.515,-1.1541 0.515,-1.1253 0.5385,-1.0962 0.5618,-1.0676 0.5618,-1.0677 0.5852,-1.0386 0.5852,-0.9521 0.6086,-0.9233 0.6321,-0.8944 0.632,-0.808 0.6555,-0.7789 0.6787,-0.6925 0.679,-0.6925 0.3277,-0.2887 0.3512,-0.3172 0.3511,-0.2597 0.351,-0.2596 0.3512,-0.2309 0.3511,-0.2308 0.3512,-0.1732 0.3745,-0.202 0.3512,-0.1443 0.3511,-0.1441 0.3746,-0.1155 0.3745,-0.1153 0.3745,-0.0867 0.3746,-0.0577 0.3745,-0.0576 0.3746,-0.0289 0.6085,0.0289 0.5854,0.0864 0.2808,0.0577 0.2574,0.0579 0.2577,0.0864 0.2574,0.0865 0.2342,0.1155 0.2107,0.1153 0.2106,0.1444 0.2107,0.1443 0.1872,0.1441 0.1639,0.1732 0.1639,0.1732 0.1639,0.202 0.2808,0.4328 0.2576,0.4616 0.1873,0.4905 0.1873,0.5481 0.1169,0.5484 0.1171,0.6057 0.0468,0.6348 0.0234,0.6925 v 0.6925 l -0.0468,0.7213 -0.0468,0.7503 -0.0937,0.7789 -0.1169,0.808 -0.1639,0.8078 -0.1639,0.8656 -0.2107,0.8656 -0.1872,0.779 -0.2576,0.8656 -0.2809,0.9233 -0.3043,0.9809 -0.3746,1.0677 -0.3979,1.0964 -0.4449,1.1829 -0.4681,1.2406 -0.8662,0.404 -0.8895,0.3752 -0.866,0.3461 -0.8662,0.3464 -0.8896,0.3172 -0.866,0.3176 -0.8896,0.2884 -0.8896,0.2885 -0.8662,0.2596 -0.8895,0.2597 -0.8894,0.2308 -0.8896,0.2311 -0.8896,0.2017 -0.8896,0.202 -0.8895,0.1732 -0.8894,0.1444 -0.0236,0.0576 -0.0468,0.1443 -0.0935,0.2885 -0.1171,0.3461 -0.1405,0.4907 -0.1873,0.577 -0.2106,0.6924 -0.2341,0.808 -0.2106,0.8945 -0.1639,0.8942 -0.1639,0.8656 -0.1405,0.8369 -0.1169,0.8077 -0.0938,0.7504 -0.0935,0.7501 -0.0703,0.7212 -0.0468,0.6925 -0.0234,0.6636 -0.0234,0.6349 0.0234,0.606 0.0234,0.5769 0.0468,0.5483 0.0467,0.5193 0.0938,0.4905 0.0935,0.4616 0.1171,0.4329 0.1405,0.4328 0.1639,0.3749 0.1639,0.3464 0.1872,0.3172 0.2107,0.2887 0.234,0.2885 0.2341,0.2308 0.281,0.202 0.2808,0.202 0.3044,0.1441 0.3044,0.1156 0.3511,0.1153 0.351,0.0578 0.3745,0.0289 h 0.4917 l 0.4916,-0.0867 0.4915,-0.1442 0.4916,-0.1731 0.4917,-0.2308 0.515,-0.2885 0.5149,-0.3464 0.515,-0.3749 0.4917,-0.4328 0.515,-0.4907 0.4681,-0.4905 0.4683,-0.5481 0.468,-0.5772 0.4449,-0.6057 0.4213,-0.6348 0.4213,-0.6637 0.398,-0.6924 0.3745,-0.7213 0.3278,-0.7213 0.3277,-0.7215 0.2809,-0.7213 0.2576,-0.7501 0.2106,-0.7501 0.2107,-0.7504 z m -11.0724,-9.1464 5.8289,-1.2408 0.2808,-0.0864 0.2576,-0.0865 0.2574,-0.1155 0.2575,-0.1153 0.2342,-0.1444 0.2574,-0.1732 0.2341,-0.1729 0.2342,-0.1732 0.4915,-0.4328 0.4448,-0.4616 0.4447,-0.5484 0.4213,-0.5769 0.4215,-0.6348 0.3746,-0.6925 0.3745,-0.6925 0.3276,-0.6924 0.281,-0.7501 0.2808,-0.7792 0.2342,-0.7789 0.2341,-0.808 0.2106,-0.9233 0.1873,-0.8945 0.1639,-0.8365 0.1171,-0.808 0.1169,-0.779 0.0704,-0.7503 0.0467,-0.6925 v -0.6636 -0.3173 l -0.0233,-0.2885 -0.0468,-0.2596 -0.047,-0.2597 -0.0701,-0.231 -0.0938,-0.2018 -0.1169,-0.202 -0.1171,-0.1731 -0.1405,-0.1444 -0.1403,-0.1153 -0.1873,-0.1155 -0.1872,-0.0865 -0.2109,-0.0865 -0.2106,-0.0578 -0.2575,-0.0289 h -0.2574 l -0.3981,0.0289 -0.3979,0.1155 -0.398,0.1441 -0.3979,0.1732 -0.3979,0.2596 -0.3979,0.2887 -0.3981,0.3461 -0.398,0.3752 -0.3979,0.4617 -0.3979,0.4904 -0.3979,0.5481 -0.398,0.5772 -0.3979,0.6636 -0.3981,0.6925 -0.3979,0.7501 -0.3979,0.7792 -0.4681,1.0674 -0.6088,1.4137 -0.7023,1.6737 -0.7255,1.8177 -0.7023,1.8466 -0.6088,1.731 -0.2574,0.7792 -0.234,0.7213 -0.1639,0.6348 -0.1405,0.5193 v 0.0288 0.0576 0.0291 0 0.0288 z m 19.0081,26.1985 H 73.93 l 11.4704,-42.2697 -5.5012,1.9045 0.7023,-3.9242 0.7257,-0.0865 0.7491,-0.1153 0.7257,-0.1443 0.7725,-0.1444 0.749,-0.202 0.7725,-0.2018 0.7725,-0.2308 0.796,-0.2599 0.7959,-0.2884 0.7958,-0.3173 0.8194,-0.3464 0.8193,-0.3461 0.8194,-0.404 0.8426,-0.404 0.8428,-0.4328 0.8426,-0.4616 -0.6319,1.7024 -0.6322,1.7022 -0.6086,1.7025 -0.5852,1.731 -0.5852,1.7601 -0.5618,1.7313 -0.5384,1.7599 -0.5384,1.7889 -0.5384,1.7889 -0.5151,1.8466 -0.515,1.8465 -0.5149,1.9045 -0.515,1.9042 -0.4917,1.9621 -0.515,1.9907 -0.4915,2.0197 2.0366,-3.2315 2.1068,-3.2891 2.2004,-3.3759 2.2942,-3.4335 2.3642,-3.5201 2.4581,-3.5488 2.5514,-3.6643 2.6219,-3.6934 h 4.12 l -11.5408,41.1733 1.0769,-0.981 1.0534,-1.0388 1.0301,-1.0385 1.0065,-1.0677 0.9598,-1.1253 0.9597,-1.1252 0.9363,-1.1541 0.913,-1.2118 0.8896,-1.212 0.8662,-1.2694 0.8426,-1.2696 0.8194,-1.2985 0.7959,-1.3558 0.7724,-1.3561 0.7491,-1.3852 0.7257,-1.4426 5.3607,-22.0725 h 5.2905 l -0.7959,2.5969 -0.7726,2.539 -0.7725,2.5679 -0.7491,2.539 -0.3511,1.2696 -0.3512,1.2694 -0.3276,1.2985 -0.3277,1.2984 -0.3044,1.2983 -0.2808,1.2984 -0.281,1.3273 -0.2808,1.3561 -0.047,0.2885 -0.0468,0.2596 -0.0467,0.2599 -0.0234,0.2308 -0.0468,0.2308 -0.0236,0.2018 -0.0467,0.1732 -0.0234,0.1731 h -2.973 l -0.515,1.0677 -0.5384,1.0674 -0.5618,1.0388 -0.5618,1.0386 -0.5852,1.0099 -0.5852,0.981 -0.5852,0.9809 -0.6322,0.9523 -0.6085,0.9233 -0.632,0.9521 -0.6555,0.8945 -0.6556,0.8945 -0.6787,0.8656 -0.7023,0.8654 -0.7023,0.8368 -0.7023,0.8368 -0.7257,0.779 -0.7491,0.8079 -0.7491,0.7502 -0.7491,0.7212 -0.749,0.7213 -0.7725,0.6925 -0.7725,0.6636 -0.7724,0.6348 -0.7961,0.606 -0.8192,0.6058 -0.8192,0.5772 -0.8195,0.5481 -0.8426,0.5195 -0.8428,0.4905 -0.8662,0.4904 -0.866,0.4328 11.1193,-40.5672 -0.3278,0.4904 -0.4213,0.6348 -0.5384,0.779 -0.6556,0.9809 -0.7491,1.1253 -0.8895,1.2696 -0.9832,1.4714 -1.1002,1.6158 -1.1236,1.6736 -1.0535,1.5869 -1.0299,1.5581 -0.9597,1.4426 -0.8896,1.4137 -0.8662,1.3561 -0.7724,1.2697 -0.7491,1.2117 -0.7023,1.1541 -0.7023,1.2118 -0.6554,1.2119 -0.6555,1.2118 -0.6553,1.2117 -0.6088,1.2697 -0.6086,1.2406 -0.6086,1.2696 -0.5618,1.2694 -0.5384,1.2984 -0.515,1.3273 -0.4917,1.3273 -0.4915,1.3561 -0.4215,1.3561 -0.4213,1.3561 z m 149.326,1.183 -0.7024,-1.183 0.6556,-1.5869 0.6787,-1.7024 0.6789,-1.8466 0.679,-1.933 0.7021,-2.0486 0.7257,-2.1929 0.7257,-2.2794 0.749,-2.4235 0.7725,-2.5393 0.7727,-2.6543 0.7724,-2.741 0.8193,-2.8854 0.796,-3.0007 0.8426,-3.1162 0.8194,-3.2314 0.866,-3.3759 -1.5215,1.9333 -1.3812,1.7598 -1.264,1.616 -1.1471,1.4714 -1.0066,1.2985 -0.9129,1.1541 -0.7491,1.0097 -0.6555,0.8368 -0.5852,0.779 -0.6086,0.8368 -0.6086,0.8656 -0.6555,0.8945 -0.632,0.9521 -0.6789,0.9809 -0.6789,1.0388 -0.7021,1.0965 -0.7024,1.0962 -0.6789,1.1253 -0.6789,1.1541 -0.6787,1.1541 -0.6556,1.212 -0.6319,1.2406 -0.6322,1.2408 -0.632,1.2694 -0.6085,1.2984 -0.5852,1.3561 -0.5854,1.3561 -0.5618,1.4138 -0.5384,1.4137 -0.5385,1.4717 -0.5148,1.5002 -0.5151,1.5292 h -3.8391 l 11.4938,-41.1154 -5.3373,1.7599 0.913,-3.7796 0.7257,-0.0288 0.7023,-0.0579 0.7023,-0.0865 0.7023,-0.1155 0.7257,-0.1729 0.7021,-0.1732 0.7023,-0.2308 0.7023,-0.2885 0.7024,-0.2887 0.7023,-0.3461 0.7021,-0.3752 0.7257,-0.404 0.7023,-0.4328 0.7023,-0.4905 0.7023,-0.5192 0.7023,-0.5482 -9.6211,30.815 0.8192,-1.385 0.8193,-1.3849 0.8428,-1.3273 0.8192,-1.3272 0.8194,-1.2985 0.8193,-1.2694 0.8194,-1.212 0.8192,-1.2117 0.8428,-1.2118 0.8193,-1.1829 0.8428,-1.1832 0.8426,-1.1541 0.8662,-1.1829 0.8662,-1.1541 0.8894,-1.1541 0.8896,-1.1541 0.9129,-1.1541 0.9597,-1.1829 0.9834,-1.212 1.0065,-1.2118 1.03,-1.2694 1.0767,-1.2696 1.1002,-1.3273 1.1238,-1.3273 h 3.4644 l -11.4938,41.1157 4.7521,-0.8657 -0.8428,3.3759 -0.5852,0.0576 -0.6086,0.0865 -0.6087,0.0867 -0.6086,0.1441 -0.632,0.1732 -0.6321,0.202 -0.632,0.2308 -0.632,0.2597 -0.6321,0.2886 -0.6554,0.3173 -0.6555,0.3462 -0.6555,0.3751 -0.6788,0.404 -0.6789,0.4328 -0.6553,0.4905 z m -53.2087,-1.183 h -4.2838 l 11.4704,-42.2697 -5.5012,1.9045 0.7023,-3.9242 0.7257,-0.0865 0.7491,-0.1153 0.7257,-0.1443 0.7724,-0.1444 0.7491,-0.202 0.7725,-0.2018 0.7724,-0.2308 0.7961,-0.2599 0.7958,-0.2884 0.7959,-0.3173 0.8194,-0.3464 0.8192,-0.3461 0.8194,-0.404 0.8427,-0.404 0.8428,-0.4328 0.8426,-0.4616 -0.632,1.7024 -0.6321,1.7022 -0.5852,1.7025 -0.6086,1.731 -0.5852,1.7601 -0.5618,1.7313 -0.5384,1.7599 -0.5384,1.7889 -0.5385,1.7889 -0.515,1.8466 -0.515,1.8465 -0.5149,1.9045 -0.515,1.9042 -0.4917,1.9621 -0.515,1.9907 -0.4915,2.0197 2.0366,-3.2315 2.1067,-3.2891 2.2005,-3.3759 2.294,-3.4335 2.3643,-3.5201 2.4581,-3.5488 2.5514,-3.6643 2.622,-3.6934 h 4.1199 l -11.5407,41.1733 1.0768,-0.981 1.0535,-1.0388 1.0301,-1.0385 1.0065,-1.0677 0.9831,-1.1253 0.9363,-1.1252 0.9364,-1.1541 0.913,-1.2118 0.8895,-1.212 0.8662,-1.2694 0.8426,-1.2696 0.8195,-1.2985 0.7958,-1.3558 0.7725,-1.3561 0.7491,-1.3852 0.7257,-1.4426 5.3606,-22.0725 h 5.2905 l -0.9129,2.9718 -0.7959,2.6546 -0.7023,2.3082 -0.5852,1.9621 -0.4916,1.6734 -0.398,1.3273 -0.281,0.9809 -0.1872,0.6636 -0.0468,0.3175 -0.0702,0.2885 -0.0469,0.2885 -0.0468,0.2596 -0.0701,0.2597 -0.0468,0.2308 -0.047,0.2308 -0.0467,0.202 -0.0468,0.2308 -0.0468,0.202 -0.0469,0.2308 -0.0468,0.2309 -0.0468,0.2308 -0.0468,0.2596 -0.0469,0.2309 -0.0468,0.2596 -0.0701,0.2599 -0.047,0.2596 -0.0468,0.2597 -0.0467,0.2596 -0.0702,0.2885 -0.047,0.2596 -0.0467,0.2887 -0.0468,0.2885 -0.0703,0.2885 -0.0468,0.2596 -0.0234,0.2599 -0.0468,0.2308 -0.0469,0.2308 -0.0234,0.2018 -0.0234,0.1732 -0.0468,0.1731 h -2.9495 l -0.5384,1.0677 -0.5385,1.0674 -0.5618,1.0388 -0.5618,1.0386 -0.5852,1.0099 -0.5852,0.981 -0.5852,0.9809 -0.6087,0.9523 -0.632,0.9233 -0.6319,0.9521 -0.6556,0.8945 -0.6555,0.8945 -0.6788,0.8656 -0.7023,0.8654 -0.7023,0.8368 -0.7023,0.8368 -0.7257,0.779 -0.7491,0.8079 -0.7256,0.7502 -0.7491,0.7212 -0.7725,0.7213 -0.7725,0.6925 -0.7724,0.6636 -0.7725,0.6348 -0.796,0.606 -0.8192,0.6058 -0.8193,0.5772 -0.8194,0.5481 -0.8426,0.5195 -0.8428,0.4905 -0.8662,0.4904 -0.866,0.4328 11.1192,-40.5672 -0.3277,0.4904 -0.4214,0.6348 -0.5384,0.779 -0.6555,0.9809 -0.7491,1.1253 -0.8896,1.2696 -0.9831,1.4714 -1.0768,1.6158 -1.147,1.6736 -1.0535,1.5869 -1.0299,1.5581 -0.9597,1.4426 -0.8896,1.4137 -0.8428,1.3561 -0.7959,1.2697 -0.749,1.2117 -0.7023,1.1541 -0.679,1.2118 -0.6787,1.2119 -0.6555,1.2118 -0.6554,1.2117 -0.6088,1.2697 -0.6085,1.2406 -0.6086,1.2696 -0.5618,1.2694 -0.5384,1.2984 -0.5151,1.3273 -0.4916,1.3273 -0.4681,1.3561 -0.4449,1.3561 -0.4213,1.3561 z m -28.0441,-15.1479 0.5618,-2.2215 0.6088,-2.1353 0.6086,-2.1062 0.632,-2.0485 0.6555,-1.9621 0.6787,-1.9331 0.6789,-1.8465 0.7257,-1.789 0.3512,-0.8656 0.3745,-0.8656 0.398,-0.8366 0.3979,-0.808 0.4215,-0.8078 0.4213,-0.7791 0.4447,-0.7501 0.4449,-0.7501 0.4447,-0.7216 0.4916,-0.6924 0.4681,-0.6925 0.4916,-0.6636 0.5151,-0.6346 0.515,-0.6348 0.5383,-0.606 0.5384,-0.5769 0.5618,-0.5772 0.5618,-0.5193 0.5854,-0.4905 0.5852,-0.4616 0.5852,-0.404 0.6319,-0.404 0.6088,-0.3461 0.6553,-0.3175 0.6322,-0.2885 0.6787,-0.2308 0.6556,-0.2309 0.7023,-0.1731 0.6787,-0.1441 0.7257,-0.1156 0.7257,-0.0576 0.7257,-0.0577 0.281,0.0289 0.2808,0.0288 0.2574,0.0576 0.2576,0.0577 0.2341,0.1155 0.2106,0.1153 0.2107,0.1443 0.2108,0.1732 0.1873,0.202 0.1873,0.2308 0.1637,0.2309 0.1405,0.2596 0.1405,0.2885 0.1171,0.3173 0.1169,0.3175 0.1171,0.3461 0.1639,0.7503 0.1405,0.8078 0.1169,0.8656 0.0704,0.8945 0.0234,0.9233 -0.0234,1.0097 -0.047,1.0388 -0.0701,1.0677 -0.1172,1.1253 -0.1403,1.0962 -0.1405,1.1541 -0.1872,1.1253 -0.1873,1.1541 -0.2342,1.1831 -0.2341,1.183 -0.2574,1.1829 -0.4917,1.9621 -0.5384,1.933 -0.5384,1.8754 -0.5852,1.8178 -0.6086,1.7889 -0.6555,1.7312 -0.6554,1.6734 -0.7023,1.6446 -0.3745,0.808 -0.3512,0.7789 -0.3979,0.7504 -0.3745,0.7501 -0.3979,0.7213 -0.398,0.6924 -0.4215,0.6637 -0.4213,0.6636 -0.4213,0.6636 -0.4449,0.6058 -0.4447,0.606 -0.4447,0.5772 -0.4682,0.5769 -0.4683,0.5483 -0.4681,0.5193 -0.4916,0.4905 -0.4915,0.4905 -0.4916,0.4328 -0.5151,0.4328 -0.515,0.3752 -0.5149,0.3461 -0.5384,0.3463 -0.5384,0.2885 -0.5384,0.2596 -0.5385,0.2309 -0.5618,0.202 -0.5618,0.1731 -0.5618,0.1442 -0.5852,0.0867 -0.5854,0.0864 -0.5852,0.0577 h -0.5852 -1.1937 l -0.5618,-0.1153 -0.5151,-0.1444 -0.4682,-0.1731 -0.4681,-0.2309 -0.4213,-0.2308 -0.3746,-0.2596 -0.3511,-0.2885 -0.3044,-0.3173 -0.1405,-0.1732 -0.1405,-0.202 -0.1169,-0.202 -0.1171,-0.2308 -0.117,-0.2308 -0.0937,-0.2596 -0.0935,-0.2597 -0.0704,-0.2885 -0.1405,-0.6059 -0.0935,-0.6637 -0.0702,-0.7213 -0.0236,-0.7791 0.0236,-0.8654 0.0468,-0.9524 0.1169,-1.0386 0.1639,-1.1252 0.2107,-1.2118 0.2342,-1.2984 0.3042,-1.385 z m 5.8757,-4.3279 -0.3745,1.5869 -0.4213,1.7313 -0.2107,0.8944 -0.1872,0.9233 -0.1639,0.9233 -0.1639,0.9233 -0.1405,0.9232 -0.1171,0.9522 -0.0702,0.9232 -0.0467,0.8945 v 0.4616 0.4329 l 0.0233,0.4616 0.0234,0.404 0.0468,0.4328 0.0469,0.4328 0.0702,0.404 0.0935,0.4038 0.0938,0.2887 0.0935,0.2885 0.0937,0.2884 0.1405,0.2308 0.117,0.2597 0.1639,0.202 0.1638,0.202 0.1639,0.1732 0.1873,0.1731 0.2106,0.1441 0.2107,0.1444 0.2342,0.1153 0.2341,0.0867 0.2574,0.0576 0.281,0.0865 0.2808,0.0288 0.4683,-0.0288 0.4447,-0.0576 0.4682,-0.1444 0.4447,-0.1729 0.4449,-0.202 0.4213,-0.2885 0.4447,-0.3175 0.4213,-0.3752 0.4215,-0.4038 0.4213,-0.4616 0.4213,-0.5195 0.398,-0.5769 0.4215,-0.606 0.3979,-0.6637 0.3745,-0.6924 0.398,-0.779 0.4682,-0.9809 0.4447,-0.9812 0.4213,-0.9809 0.4215,-1.0098 0.3979,-1.0099 0.3746,-1.0098 0.3511,-1.0388 0.3512,-1.0386 0.3276,-1.0388 0.3277,-1.0388 0.3044,-1.0386 0.3042,-1.0676 0.5618,-2.135 0.5385,-2.1641 0.1872,-0.8078 0.2342,-1.0676 0.2575,-1.2406 0.281,-1.3849 0.2574,-1.5293 0.2107,-1.5581 0.0937,-0.808 0.0935,-0.8366 0.0702,-0.808 0.0469,-0.7789 0.0234,-0.808 v -0.7789 l -0.0234,-0.7501 -0.0469,-0.7215 -0.0702,-0.7213 -0.1171,-0.6637 -0.1403,-0.6057 -0.1873,-0.606 -0.2106,-0.5193 -0.2576,-0.4616 -0.3042,-0.4329 -0.3512,-0.3463 -0.3981,-0.2885 -0.4447,-0.202 -0.4916,-0.1153 -0.5619,-0.0579 -0.2574,0.0289 -0.281,0.0867 -0.2574,0.0864 -0.2808,0.1444 -0.281,0.1732 -0.2574,0.202 -0.281,0.2308 -0.2808,0.2596 -0.281,0.2885 -0.2809,0.3173 -0.281,0.3752 -0.3043,0.404 -0.2809,0.4039 -0.2809,0.4617 -0.2809,0.4905 -0.3043,0.5192 -0.6086,1.1541 -0.5852,1.183 -0.5618,1.212 -0.5384,1.2405 -0.5385,1.2406 -0.4916,1.2696 -0.4681,1.2697 -0.4683,1.2982 -0.4447,1.2984 -0.4215,1.2985 -0.4213,1.3273 -0.3979,1.327 -0.7491,2.6258 z m 2.7857,-39.9325 h -5.4074 l -14.3264,59.0332 h -9.6913 l 14.3262,-59.0332 h -5.4074 l 2.1537,-8.8579 h 20.5063 z m 181.42,-5.0781 -1.4045,1.2118 -1.2173,1.0388 -1.0299,0.8366 -0.8428,0.6636 -0.6787,0.4617 -0.5151,0.3463 -0.3745,0.1732 -0.2107,0.0288 -0.0703,-0.1155 0.0703,-0.2308 0.1637,-0.3173 0.281,-0.4617 0.3979,-0.5193 0.4917,-0.6348 0.5852,-0.6925 0.632,-0.7791 0.7256,-0.8078 0.7961,-0.8656 0.8192,-0.9233 0.8896,-0.9233 0.913,-0.9521 0.9597,-0.9811 0.9597,-0.9522 0.9598,-0.9521 0.9833,-0.9232 0.9597,-0.9233 0.9597,-0.8657 0.913,-0.8077 0.8896,-0.7792 0.866,-0.6924 0.796,-0.606 0.7491,-0.5482 -2.575,2.8275 -2.2005,2.4526 -1.8025,2.0774 -1.4278,1.7024 -0.562,0.6925 -0.4447,0.6348 -0.3746,0.5193 -0.2808,0.4328 -0.1639,0.3461 -0.0937,0.2309 0.0234,0.1731 0.1171,0.0577 h 0.2107 l 0.3044,-0.1153 0.4213,-0.202 0.4916,-0.2885 0.6086,-0.3751 0.7023,-0.4617 0.7725,-0.5193 0.8895,-0.6348 2.0834,-1.5293 2.4579,-1.8465 2.8326,-2.1639 3.2303,-2.5102 -3.043,2.8851 -2.622,2.5391 -2.2472,2.2217 -1.826,1.8466 -0.749,0.808 -0.6788,0.7213 -0.5384,0.6348 -0.4683,0.5481 -0.3511,0.4904 -0.2574,0.3752 -0.1639,0.3173 -0.0468,0.2308 0.0468,0.1444 0.1405,0.0576 h 0.2574 l 0.3512,-0.0864 0.4448,-0.1732 0.5618,-0.2308 0.632,-0.3173 0.7725,-0.404 0.8428,-0.4617 0.9597,-0.5483 1.0535,-0.6346 1.1704,-0.6925 2.5984,-1.6157 3.043,-1.9044 -3.2303,2.5102 -2.8324,2.1929 -2.4112,1.933 -2.0365,1.6448 -1.6153,1.3561 -1.2407,1.1251 -0.4681,0.4328 -0.3981,0.3752 -0.2808,0.3463 -0.1639,0.2308 -0.0936,0.2018 v 0.1155 l 0.117,0.0865 h 0.1872 l 0.281,-0.0577 0.3979,-0.1153 0.4681,-0.1731 0.5854,-0.2597 1.4044,-0.6348 1.7792,-0.8945 2.1535,-1.0964 2.5282,-1.3273 -1.6386,1.1829 -1.5917,1.0965 -1.5218,1.0676 -1.4512,0.981 -1.3812,0.9232 -1.3109,0.8369 -1.2641,0.8079 -1.1704,0.6925 -1.1002,0.6636 -1.0067,0.577 -0.9363,0.4904 -0.8427,0.4329 -0.7724,0.3463 -0.6556,0.2885 -0.5852,0.202 -0.4916,0.1441 -0.3746,0.0579 -0.3041,-0.0288 -0.1639,-0.0868 -0.0938,-0.2019 0.0234,-0.2597 0.1639,-0.3461 0.2341,-0.4328 0.3745,-0.4905 0.4916,-0.606 0.6086,-0.6636 0.7491,-0.779 0.8428,-0.8368 1.0065,-0.9521 1.1238,-1.0388 1.2406,-1.1253 1.4046,-1.2117 -2.0366,1.2984 -1.7792,1.0963 -1.5215,0.8944 -1.2407,0.6925 -0.5149,0.2887 -0.4683,0.202 -0.3745,0.1729 -0.3278,0.1156 -0.2574,0.0576 h -0.1873 l -0.1171,-0.0288 -0.0467,-0.1156 0.0233,-0.1729 0.0938,-0.2308 0.1637,-0.2599 0.2108,-0.3461 0.3042,-0.404 0.3512,-0.4905 0.4447,-0.5193 0.4916,-0.5771 1.2174,-1.3849 1.4981,-1.6446 1.7556,-1.9333 z m -80.0588,36.5567 h 8.8252 l -3.7921,15.5807 -0.047,0.2885 -0.0468,0.2596 -0.0233,0.2308 -0.0234,0.2309 0.0234,0.2308 0.0233,0.1732 0.0704,0.1731 0.0701,0.173 0.0702,0.1155 0.1171,0.1153 0.1171,0.1155 0.1403,0.0865 0.1639,0.0579 0.1873,0.0576 h 0.1873 l 0.234,0.0288 0.2108,-0.0288 h 0.2107 l 0.1873,-0.0576 0.1872,-0.0579 0.1873,-0.0865 0.1639,-0.1155 0.1639,-0.1153 0.1403,-0.1155 0.1405,-0.173 0.1171,-0.1731 0.1403,-0.1732 0.0937,-0.2308 0.1172,-0.2309 0.0935,-0.2308 0.0702,-0.2596 0.0937,-0.2885 1.943,-8.0501 0.0936,-0.4617 0.0937,-0.4616 0.0468,-0.4905 0.0467,-0.4904 v -0.5193 l -0.0234,-0.5195 -0.0233,-0.5193 -0.0468,-0.5482 -0.0937,-0.5483 -0.0936,-0.5481 -0.1171,-0.5772 -0.1639,-0.5769 -0.1639,-0.5772 -0.1872,-0.6057 -0.2107,-0.606 -0.234,-0.606 -0.9364,-2.2215 -0.8428,-2.0198 -0.7257,-1.8177 -0.6319,-1.6446 -0.5385,-1.4716 -0.4448,-1.2696 -0.3276,-1.0674 -0.2342,-0.8945 -0.0936,-0.404 -0.0703,-0.404 -0.0702,-0.4038 -0.0234,-0.4039 -0.0467,-0.404 -0.0234,-0.4329 v -0.4328 -0.4328 l 0.0234,-0.4328 0.0233,-0.4326 0.0468,-0.4619 0.0702,-0.4616 0.1405,-0.8942 0.2106,-0.9524 1.8493,-7.6171 0.2109,-0.808 0.234,-0.7789 0.2341,-0.7789 0.2574,-0.7215 0.2576,-0.7213 0.2808,-0.6925 0.3044,-0.6348 0.3278,-0.6346 0.3277,-0.606 0.351,-0.5771 0.3511,-0.577 0.3982,-0.5193 0.3979,-0.4907 0.3979,-0.4904 0.4213,-0.4329 0.4447,-0.4325 0.4683,-0.404 0.4682,-0.3752 0.4915,-0.3461 0.4917,-0.3175 0.515,-0.3173 0.5384,-0.2597 0.5618,-0.2308 0.5618,-0.2308 0.5852,-0.202 0.6086,-0.1444 0.6086,-0.1443 0.6321,-0.1153 0.632,-0.1155 0.6555,-0.0577 0.6788,-0.0288 0.7023,-0.0288 0.6088,0.0288 0.5851,0.0288 0.5619,0.0577 0.5384,0.0867 0.5148,0.1153 0.4917,0.1155 0.4683,0.1441 0.4213,0.1732 0.4213,0.202 0.3745,0.2308 0.3745,0.2596 0.3278,0.2597 0.3044,0.2887 0.2808,0.3173 0.281,0.3463 0.234,0.375 0.2107,0.3751 0.1639,0.404 0.1639,0.4328 0.1405,0.4617 0.0935,0.4904 0.0937,0.4905 0.0468,0.5481 0.0468,0.5484 v 0.5769 l -0.0234,0.5772 -0.0468,0.6348 -0.0467,0.6346 -0.0938,0.6924 -0.1405,0.6925 -0.1403,0.6925 -0.1639,0.7503 -2.856,11.743 h -8.8252 l 3.0433,-12.4933 0.0467,-0.2597 0.0468,-0.2308 0.0236,-0.202 v -0.2018 -0.1731 l -0.0236,-0.1732 -0.0234,-0.1444 -0.0701,-0.1441 -0.0468,-0.1155 -0.0937,-0.1153 -0.0936,-0.0867 -0.1171,-0.0577 -0.1171,-0.0576 -0.1403,-0.0576 -0.1639,-0.0291 h -0.1639 l -0.2106,0.0291 -0.2107,0.0288 -0.1873,0.0864 -0.2108,0.1156 -0.1873,0.1153 -0.1637,0.1731 -0.1874,0.202 -0.1637,0.2309 -0.1639,0.2596 -0.1639,0.2885 -0.1405,0.3175 -0.1405,0.3749 -0.1403,0.3752 -0.1405,0.404 -0.1171,0.4616 -0.1405,0.4617 -0.866,4.4144 -0.1171,0.4905 -0.0702,0.4904 -0.0703,0.4907 -0.0234,0.4905 v 0.5193 0.5481 l 0.0467,0.5195 0.047,0.5481 0.0935,0.5481 0.0938,0.5772 0.1403,0.5772 0.1405,0.5769 0.1639,0.606 0.2106,0.6058 0.2107,0.606 0.2576,0.606 0.913,2.1638 0.8192,1.9909 0.7257,1.8178 0.6321,1.6445 0.5383,1.4717 0.4449,1.2982 0.1638,0.606 0.1639,0.5481 0.1403,0.4905 0.1171,0.4618 0.0938,0.4617 0.0701,0.4326 0.0468,0.4616 0.0468,0.4907 0.0469,0.4616 0.0234,0.4905 v 0.4905 l -0.0234,0.4904 -0.0234,0.5193 -0.0469,0.5195 -0.0468,0.5193 -0.0701,0.5193 -0.0938,0.5484 -0.0935,0.5481 -0.1171,0.5481 -0.1405,0.5483 -2.0834,8.6559 -0.2106,0.8368 -0.2341,0.8078 -0.2576,0.7789 -0.2574,0.7504 -0.281,0.7213 -0.2808,0.7213 -0.3044,0.6636 -0.3278,0.6636 -0.3275,0.606 -0.3512,0.6058 -0.3745,0.5483 -0.3746,0.5481 -0.3981,0.5193 -0.4213,0.4905 -0.4213,0.4619 -0.4449,0.4326 -0.4681,0.4039 -0.4916,0.404 -0.4915,0.3462 -0.4916,0.3175 -0.5385,0.3173 -0.5384,0.2887 -0.5384,0.2308 -0.5618,0.2308 -0.5852,0.2018 -0.6086,0.1732 -0.6088,0.1443 -0.6319,0.1153 -0.6556,0.0867 -0.6553,0.0865 -0.6789,0.0288 h -0.7023 -0.6554 l -0.6321,-0.0288 -0.6086,-0.0577 -0.5852,-0.0867 -0.5618,-0.1153 -0.5384,-0.1443 -0.4917,-0.1441 -0.4681,-0.1732 -0.4449,-0.202 -0.4213,-0.2308 -0.3979,-0.2597 -0.3745,-0.2884 -0.3278,-0.2887 -0.3042,-0.3173 -0.3044,-0.3464 -0.2574,-0.3749 -0.2342,-0.404 -0.1873,-0.4328 -0.1873,-0.4329 -0.1405,-0.4616 -0.1169,-0.4905 -0.1171,-0.5193 -0.0702,-0.5483 -0.0234,-0.5769 -0.0233,-0.5772 0.0233,-0.6058 0.0234,-0.6348 0.0702,-0.6636 0.0937,-0.6925 0.1169,-0.7213 0.1405,-0.7212 0.1873,-0.7504 z m 26.1947,27.5546 h -4.2838 l 11.4704,-42.2407 -5.5011,1.9042 0.7023,-3.9528 0.7257,-0.0867 0.749,-0.0864 0.7257,-0.1444 0.7725,-0.1729 0.7491,-0.1732 0.7724,-0.202 0.7727,-0.2596 0.7958,-0.2597 0.7959,-0.2887 0.7958,-0.2885 0.8194,-0.3461 0.8193,-0.3751 0.8194,-0.3752 0.8426,-0.4038 0.8428,-0.4616 0.8426,-0.4617 -0.6319,1.7023 -0.632,1.7024 -0.6087,1.731 -0.5852,1.7313 -0.5852,1.7311 -0.5618,1.76 -0.5385,1.7601 -0.5384,1.7599 -0.5384,1.8178 -0.5151,1.8177 -0.5148,1.8756 -0.515,1.8754 -0.5151,1.933 -0.4916,1.9621 -0.5149,1.991 -0.4916,2.0197 2.0365,-3.2317 2.1068,-3.318 2.2004,-3.3758 2.2942,-3.4335 2.3642,-3.4912 2.4581,-3.5778 2.5516,-3.6355 2.6218,-3.6931 h 4.1199 l -11.5406,41.1442 1.0767,-0.9809 1.0535,-1.0098 1.03,-1.0676 1.0065,-1.0676 0.9598,-1.0965 0.9597,-1.1541 0.9365,-1.1541 0.913,-1.1829 0.8894,-1.2406 0.8662,-1.2408 0.8428,-1.2694 0.8192,-1.3273 0.7959,-1.3273 0.7724,-1.3849 0.7493,-1.3849 0.7255,-1.4138 5.3607,-22.0725 h 5.2905 l -0.913,2.9718 -0.7958,2.6255 -0.7023,2.3082 -0.5852,1.9909 -0.4917,1.6446 -0.3979,1.3273 -0.2808,1.01 -0.1873,0.6636 -0.047,0.2885 -0.0701,0.2884 -0.0468,0.2885 -0.0469,0.2599 -0.0702,0.2596 -0.0468,0.2309 -0.0469,0.2308 -0.0468,0.2308 -0.0468,0.202 -0.0467,0.2308 -0.047,0.2308 -0.0468,0.2309 -0.0467,0.2308 -0.0468,0.2308 -0.047,0.2596 -0.0701,0.2309 -0.0468,0.2596 -0.0468,0.2597 -0.0469,0.2596 -0.0702,0.2887 -0.0467,0.2596 -0.047,0.2885 -0.0468,0.2885 -0.0701,0.2596 -0.0468,0.2887 -0.047,0.2885 -0.0233,0.2308 -0.0468,0.2308 -0.0468,0.2309 -0.0234,0.2019 -0.0235,0.202 -0.0468,0.173 h -2.9496 l -0.5384,1.0676 -0.5384,1.0677 -0.5618,1.0385 -0.5618,1.01 -0.5852,1.0098 -0.5852,1.01 -0.5852,0.9521 -0.6086,0.9521 -0.6321,0.9521 -0.632,0.9233 -0.6555,0.8944 -0.6554,0.8945 -0.6789,0.8944 -0.7023,0.8369 -0.7023,0.8365 -0.7021,0.8368 -0.7257,0.808 -0.7491,0.779 -0.7257,0.7501 -0.7727,0.7503 -0.749,0.6925 -0.7725,0.6924 -0.7725,0.6637 -0.7724,0.6346 -0.7959,0.6348 -0.8194,0.606 -0.8192,0.5481 -0.8194,0.5483 -0.8427,0.5481 -0.8428,0.4905 -0.8662,0.4617 -0.866,0.4616 11.1193,-40.5673 -0.3278,0.4617 -0.4213,0.6348 -0.5384,0.808 -0.6556,0.9521 -0.749,1.1252 -0.8894,1.2983 -0.9833,1.4428 -1.1003,1.6157 -1.1236,1.6734 -1.0534,1.6158 -1.0299,1.5292 -0.9598,1.4714 -0.8895,1.414 -0.8662,1.3271 -0.7725,1.2696 -0.7491,1.2117 -0.7023,1.183 -0.7023,1.1831 -0.6553,1.2118 -0.6556,1.2117 -0.6553,1.2408 -0.6088,1.2406 -0.6086,1.2408 -0.6086,1.2694 -0.5618,1.2985 -0.5384,1.2984 -0.515,1.2982 -0.4917,1.3273 -0.4681,1.3561 -0.4447,1.3561 -0.4215,1.3849 z m 49.0184,-40.8846 -5.8521,1.529 0.8426,-3.4623 0.4917,-0.1153 0.515,-0.0867 0.5618,-0.1441 0.5852,-0.1732 1.2875,-0.3751 1.4045,-0.4905 1.5451,-0.5769 1.662,-0.6925 1.8024,-0.7503 1.9664,-0.8654 -13.6005,46.8859 -5.1734,1.5869 0.6787,-1.9907 0.6789,-2.0197 0.679,-2.0486 0.6787,-2.0774 0.6555,-2.0776 0.6554,-2.135 0.6555,-2.1639 0.6554,-2.1929 0.6321,-2.2217 0.632,-2.2506 0.6321,-2.2794 0.6086,-2.3082 0.632,-2.337 0.6087,-2.3659 0.5852,-2.3949 0.6086,-2.4237 z m 18.4931,42.0675 -0.7257,-1.1541 0.6556,-1.6157 0.6789,-1.7023 0.6787,-1.8177 0.7023,-1.9333 0.7024,-2.0774 0.7023,-2.1638 0.749,-2.3082 0.7491,-2.4238 0.7491,-2.5102 0.7725,-2.6545 0.7958,-2.7699 0.796,-2.8854 0.8193,-3.0006 0.8192,-3.116 0.8428,-3.2317 0.8428,-3.3468 -1.4981,1.9042 -1.4046,1.7889 -1.2642,1.6158 -1.147,1.4426 -1.0067,1.2984 -0.8893,1.1541 -0.7727,1.01 -0.6553,0.8366 -0.5852,0.808 -0.6088,0.8077 -0.6086,0.8657 -0.6319,0.9232 -0.6556,0.9521 -0.6789,0.9812 -0.6787,1.0386 -0.679,1.0676 -0.7023,1.0965 -0.7021,1.1253 -0.6789,1.1541 -0.6556,1.1829 -0.6553,1.2117 -0.6555,1.212 -0.632,1.2694 -0.6086,1.2697 -0.6087,1.2982 -0.6086,1.3273 -0.5618,1.3849 -0.5852,1.3849 -0.5385,1.4428 -0.5384,1.4714 -0.515,1.5005 -0.5151,1.529 h -3.8389 l 11.4938,-41.1154 -5.3373,1.7601 0.9364,-3.8087 h 0.7023 l 0.7023,-0.0576 0.7021,-0.0867 0.7257,-0.1441 0.7023,-0.1444 0.7023,-0.202 0.7023,-0.2308 0.7021,-0.2596 0.7257,-0.2885 0.7023,-0.3464 0.7024,-0.3749 0.7023,-0.404 0.7023,-0.4616 0.7021,-0.4617 0.7023,-0.5193 0.7023,-0.5483 -9.6211,30.8149 0.8192,-1.4137 0.8429,-1.3561 0.8192,-1.3561 0.8194,-1.3273 0.8426,-1.2694 0.8195,-1.2696 0.8192,-1.2406 0.8194,-1.2118 0.8192,-1.1831 0.8195,-1.183 0.8426,-1.1829 0.8662,-1.1829 0.8426,-1.1541 0.8896,-1.1541 0.8662,-1.1541 0.9129,-1.1544 0.913,-1.1541 0.9363,-1.1829 0.9832,-1.2117 1.0066,-1.2408 1.0299,-1.2406 1.0769,-1.2985 1.1002,-1.2982 1.1236,-1.3273 h 3.4646 l -11.4938,41.0866 4.7519,-0.8656 -0.8192,3.4046 -0.6088,0.0289 -0.6086,0.0867 -0.6085,0.1152 -0.6086,0.1444 -0.6322,0.1443 -0.6086,0.2018 -0.6321,0.2308 -0.6554,0.2599 -0.6319,0.2885 -0.6556,0.3173 -0.6555,0.3463 -0.6553,0.375 -0.679,0.4328 -0.6553,0.4328 -0.6789,0.4616 z m 31.8598,-14.2532 1.9195,-7.9347 -7.7718,12.3203 -0.632,0.9521 -0.6321,0.9232 -0.632,0.8657 -0.6555,0.8368 -0.6554,0.7789 -0.6789,0.7213 -0.6789,0.6925 -0.7021,0.6636 -0.679,0.5772 -0.7023,0.4904 -0.3277,0.2309 -0.3278,0.202 -0.3276,0.202 -0.3278,0.1441 -0.3043,0.1443 -0.3276,0.1444 -0.3044,0.0864 -0.3278,0.1156 -0.3044,0.0576 -0.3041,0.0577 -0.281,0.0288 h -0.3042 l -0.2577,-0.0288 -0.234,-0.0577 -0.234,-0.0867 -0.1873,-0.0865 -0.2107,-0.1152 -0.1638,-0.1444 -0.1639,-0.1732 -0.1405,-0.202 -0.1405,-0.202 -0.117,-0.2308 -0.0937,-0.2596 -0.0935,-0.2597 -0.0704,-0.3173 -0.0701,-0.3175 -0.0468,-0.3461 -0.0236,-0.3464 -0.0233,-0.7789 0.0233,-0.8368 0.047,-0.8366 0.0935,-0.8944 0.1405,-0.9233 0.1639,-0.9812 0.2107,-1.0097 0.234,-1.0677 0.4449,-1.5002 0.4915,-1.5293 0.515,-1.5581 0.5852,-1.5581 0.6555,-1.5869 0.679,-1.5869 0.7255,-1.6158 0.7726,-1.6157 0.8192,-1.6157 0.8428,-1.6158 0.8661,-1.5581 0.8895,-1.5293 0.8896,-1.5002 0.9364,-1.5004 0.9363,-1.4426 0.9597,-1.4428 0.9598,-1.3849 0.9599,-1.2983 0.9363,-1.2408 0.9364,-1.1541 0.9129,-1.0964 0.8896,-1.0386 0.9128,-0.9521 0.8662,-0.8945 0.8662,-0.808 0.7958,-0.6924 0.398,-0.3173 0.3745,-0.2597 0.3512,-0.2598 0.3511,-0.2309 0.3512,-0.2017 0.3277,-0.1732 0.3278,-0.1443 0.3042,-0.1153 0.3044,-0.0867 0.2808,-0.0577 0.281,-0.0576 h 0.2808 0.1405 0.1405 l 0.1639,0.0288 0.1639,0.0576 0.1403,0.0289 0.1639,0.0578 0.1638,0.0865 0.1873,0.0577 0.1639,0.0867 0.1405,0.0864 0.1639,0.0577 0.1405,0.0576 0.1169,0.0291 0.1405,0.0288 0.1171,0.0288 h 0.1169 l 4.0498,-0.6924 -7.4908,28.7952 -0.4448,1.7024 -0.4681,1.7022 -0.4449,1.6446 -0.4681,1.6157 -0.4683,1.6158 -0.468,1.5581 -0.4683,1.5581 -0.4917,1.5293 -0.4914,1.4713 -0.4917,1.4717 -0.4916,1.4425 -0.5149,1.4138 -0.515,1.3849 -0.5151,1.3561 -0.515,1.3273 -0.5384,1.3273 -0.5383,1.2696 -0.5384,1.2406 -0.5384,1.1829 -0.5384,1.1829 -0.5618,1.1253 -0.5385,1.0965 -0.5618,1.0388 -0.5618,1.0097 -0.5618,0.981 -0.5618,0.9523 -0.5852,0.9233 -0.562,0.8654 -0.5852,0.8368 -0.5852,0.7792 -0.5852,0.7789 -0.5852,0.7213 -0.5852,0.6925 -0.5853,0.6348 -0.6086,0.606 -0.5852,0.5481 -0.5852,0.4904 -0.6086,0.4617 -0.5854,0.4328 -0.6085,0.3752 -0.5852,0.3173 -0.6086,0.2884 -0.6088,0.2599 -0.5852,0.2018 -0.6086,0.1443 -0.6085,0.1156 -0.6088,0.0576 -0.6086,0.0288 -0.6319,-0.0288 -0.5618,-0.0867 -0.281,-0.0577 -0.2575,-0.0576 -0.2342,-0.0865 -0.234,-0.0867 -0.2341,-0.1153 -0.2106,-0.1155 -0.1873,-0.1441 -0.1873,-0.1444 -0.1639,-0.1731 -0.1638,-0.1732 -0.1405,-0.173 -0.1405,-0.2019 -0.1639,-0.2885 -0.117,-0.2599 -0.1404,-0.3173 -0.0936,-0.2885 -0.0937,-0.3175 -0.0702,-0.3461 -0.0703,-0.3175 -0.0468,-0.3461 -0.0701,-0.7213 -0.0234,-0.7213 0.0234,-0.7503 0.0467,-0.779 0.0702,-0.7501 0.1171,-0.7503 0.1171,-0.7501 0.1169,-0.7501 0.3044,-1.385 0.2574,-1.212 0.3746,-1.2694 0.3278,-1.2119 0.3277,-1.1253 0.2808,-1.0386 0.2576,-0.9809 0.2575,-0.9233 0.2106,-0.8368 0.1873,-0.7501 4.1669,0.7789 -0.3044,0.6348 -0.2808,0.6637 -0.281,0.6636 -0.2341,0.6636 -0.234,0.6634 -0.2108,0.6637 -0.2107,0.6924 -0.1639,0.6637 -0.1403,0.6924 -0.1405,0.6925 -0.0937,0.6925 -0.0702,0.6924 -0.0467,0.6925 -0.0234,0.6927 v 0.6924 l 0.0467,0.6925 -2.6687,0.2597 -0.0935,0.3749 -0.0938,0.4907 -0.0701,0.6058 -0.0468,0.6348 v 0.3461 0.3463 l 0.0234,0.3464 0.0468,0.3461 0.0467,0.3463 0.0704,0.3462 0.0935,0.3172 0.1171,0.3176 0.0702,0.1443 0.0937,0.173 0.1171,0.1443 0.0936,0.1153 0.1171,0.1444 0.1403,0.1155 0.1405,0.0865 0.1639,0.1152 0.3278,0.1732 0.3979,0.1444 0.4213,0.0864 0.4683,0.0577 h 0.468 l 0.4449,-0.0865 0.4681,-0.1153 0.4449,-0.1443 0.4447,-0.1732 0.4213,-0.2308 0.4449,-0.2597 0.4213,-0.2884 0.3979,-0.3176 0.4213,-0.3172 0.3981,-0.3752 0.398,-0.4038 0.3979,-0.404 0.3745,-0.4328 0.3746,-0.4616 0.3745,-0.4617 0.7023,-0.9809 0.6554,-1.01 0.6321,-1.0386 0.6086,-1.0388 0.5618,-1.0388 0.4916,-1.0097 0.4915,-0.981 0.4215,-0.8944 0.632,-1.4138 0.6086,-1.4428 0.6087,-1.4714 0.5852,-1.5004 0.5852,-1.5003 0.5384,-1.5581 0.5618,-1.5869 0.5385,-1.6157 0.515,-1.6158 0.4915,-1.6157 0.4682,-1.616 0.4681,-1.6157 0.4683,-1.6446 0.4213,-1.6158 0.4215,-1.6157 z m 6.4139,-31.3345 -0.1872,-0.0288 -0.1873,-0.0288 -0.1873,0.0288 -0.1872,0.0288 -0.2107,0.0579 -0.1873,0.0576 -0.1872,0.1153 -0.2107,0.1156 -0.4447,0.3461 -0.515,0.4616 -0.6086,0.5484 -0.7023,0.6924 -0.796,0.8368 -0.7725,0.8366 -0.7491,0.9233 -0.7491,0.9233 -0.7023,0.9521 -0.7021,1.01 -0.7023,1.0097 -0.6555,1.0388 -0.632,1.0386 -0.6321,1.0676 -0.6086,1.0965 -0.5852,1.0965 -0.5618,1.0964 -0.5385,1.0962 -0.5384,1.1253 -0.4916,1.0965 -0.2341,0.5193 -0.3277,0.8368 -0.4447,1.1253 -0.4917,1.3561 -0.5384,1.5004 -0.5384,1.6446 -0.5618,1.731 -0.5149,1.7313 -0.2342,0.8656 -0.2107,0.8657 -0.1872,0.8365 -0.1873,0.808 -0.1405,0.779 -0.1169,0.7501 -0.0938,0.7215 -0.0467,0.6636 v 0.6058 l 0.0467,0.5195 0.0704,0.4905 0.1403,0.4037 0.1873,0.3176 0.2342,0.2308 0.2808,0.1732 0.3745,0.0288 0.2576,-0.0288 0.2809,-0.0867 0.281,-0.1442 0.3275,-0.1731 0.3278,-0.2309 0.3278,-0.2884 0.3511,-0.3175 0.3512,-0.375 0.3745,-0.404 0.3746,-0.404 0.3745,-0.4616 0.3979,-0.4617 0.7725,-1.0099 0.7725,-1.0674 0.749,-1.0965 0.7257,-1.0965 0.6789,-1.0676 0.6556,-1.0386 1.0766,-1.7889 0.7491,-1.2406 0.7727,-1.3272 0.7491,-1.2697 0.6787,-1.2405 0.6789,-1.212 0.632,-1.1541 0.5854,-1.1541 0.5384,-1.0963 0.5148,-1.0964 0.2343,-0.4905 0.3042,-0.7503 0.3979,-0.9233 0.4215,-1.0674 0.4213,-1.1832 0.4681,-1.2982 0.4215,-1.3273 0.3979,-1.3561 0.1639,-0.6636 0.1639,-0.6637 0.1403,-0.6636 0.1171,-0.6348 0.0937,-0.6058 0.0702,-0.606 0.0233,-0.5481 v -0.5195 l -0.0233,-0.4905 -0.0702,-0.4616 -0.1171,-0.404 -0.1405,-0.3461 -0.1873,-0.2885 -0.2574,-0.2599 -0.281,-0.1729 z M 71.7065,193.312 v -8.9732 h -3.4879 v -2.3661 h 9.5977 v 2.3661 h -3.5114 v 8.9732 z m 10.9554,-11.3393 h 2.5984 v 4.3858 h 4.6116 v -4.3858 h 2.6218 v 11.3393 h -2.6218 v -4.5876 h -4.6116 v 4.5876 h -2.5984 z m 15.5202,11.3393 v -11.3393 h 7.8419 v 2.3949 h -5.3137 v 1.9909 h 5.0563 v 2.3371 h -5.0563 v 2.1927 h 5.4542 v 2.4237 z m 130.037,82.9235 -0.5852,-0.0288 -0.5618,-0.0577 -0.515,-0.1155 -0.5149,-0.1441 -0.4683,-0.202 -0.4447,-0.2597 -0.2106,-0.1155 -0.1873,-0.1732 -0.2108,-0.1441 -0.1637,-0.1732 -0.1873,-0.202 -0.1639,-0.202 -0.1639,-0.202 -0.1405,-0.2308 -0.1405,-0.2308 -0.1169,-0.2596 -0.1171,-0.2597 -0.0937,-0.2596 -0.0936,-0.2885 -0.0937,-0.3175 -0.0702,-0.2885 -0.0467,-0.3463 -0.0468,-0.3173 -0.0236,-0.3464 -0.0234,-0.3749 v -0.3752 -0.3752 l 0.0234,-0.3749 0.0236,-0.3463 0.0702,-0.3173 0.0467,-0.3173 0.0938,-0.3176 0.0935,-0.2884 0.0937,-0.2885 0.117,-0.2887 0.1405,-0.2596 0.1405,-0.2309 0.1405,-0.2308 0.1638,-0.2308 0.1637,-0.202 0.1873,-0.202 0.1873,-0.1729 0.1872,-0.1732 0.2109,-0.1732 0.2106,-0.1443 0.2341,-0.1441 0.4682,-0.2309 0.4915,-0.202 0.4917,-0.1443 0.5384,-0.1153 0.5384,-0.0577 h 0.5618 0.5852 l 0.5618,0.0577 0.5151,0.1153 0.5148,0.1732 0.4917,0.1731 0.4448,0.2597 0.2107,0.1443 0.2107,0.1441 0.1872,0.1732 0.1873,0.1732 0.1873,0.1732 0.1638,0.2017 0.1639,0.2309 0.1403,0.2019 0.1405,0.2597 0.1172,0.2308 0.1169,0.2599 0.1171,0.2885 0.0937,0.2884 0.0936,0.2885 0.0701,0.3175 0.047,0.3461 0.0468,0.3176 0.0233,0.3749 0.0234,0.3463 0.0234,0.404 -0.0234,0.375 -0.0234,0.3751 -0.0233,0.3462 -0.0702,0.3463 -0.047,0.3173 -0.0935,0.3175 -0.0937,0.3173 -0.0936,0.2885 -0.1171,0.2599 -0.1405,0.2596 -0.1403,0.2308 -0.1405,0.2308 -0.1639,0.2309 -0.1639,0.202 -0.1872,0.2017 -0.1873,0.1732 -0.2107,0.1732 -0.2106,0.1443 -0.2107,0.1441 -0.2106,0.1444 -0.4917,0.2308 -0.4916,0.1732 -0.5151,0.1441 -0.5382,0.0867 -0.562,0.0577 z m -2.7153,-5.7705 0.0234,0.404 0.0233,0.4037 0.0702,0.3752 0.0703,0.3461 0.0936,0.3175 0.1171,0.2885 0.1405,0.2596 0.1639,0.2597 0.1873,0.202 0.2106,0.202 0.234,0.1443 0.2575,0.1441 0.281,0.0868 0.3044,0.0864 0.3275,0.0288 0.3278,0.0289 0.3512,-0.0289 0.3277,-0.0288 0.2808,-0.0864 0.281,-0.0868 0.2575,-0.1152 0.2576,-0.1732 0.2106,-0.1732 0.1873,-0.2018 0.1639,-0.2308 0.1639,-0.2599 0.1169,-0.2884 0.0937,-0.3173 0.0936,-0.3464 0.0467,-0.3749 0.047,-0.404 v -0.404 -0.4328 l -0.047,-0.404 -0.0467,-0.4038 -0.0702,-0.3463 -0.1171,-0.3461 -0.1169,-0.3176 -0.1405,-0.2884 -0.1639,-0.2885 -0.1873,-0.2308 -0.2106,-0.202 -0.2577,-0.1732 -0.2574,-0.1732 -0.281,-0.1152 -0.3042,-0.0868 -0.3511,-0.0576 h -0.3512 -0.3277 l -0.3278,0.0576 -0.3042,0.0868 -0.281,0.1441 -0.2341,0.1443 -0.234,0.1732 -0.2106,0.2308 -0.1873,0.2308 -0.1639,0.2597 -0.1405,0.2884 -0.1171,0.3176 -0.0936,0.3461 -0.0937,0.3463 -0.0468,0.375 -0.0233,0.404 z m 13.6005,5.5685 v -11.3681 h 5.0331 0.2808 0.234 l 0.2343,0.0288 h 0.234 l 0.1873,0.0291 h 0.1872 l 0.1639,0.0288 0.1639,0.0288 0.2808,0.0577 0.2576,0.0864 0.2808,0.1156 0.2341,0.1443 0.2342,0.1729 0.234,0.202 0.1873,0.2597 0.1639,0.2887 0.0702,0.1441 0.0703,0.1732 0.0468,0.1732 0.0467,0.1731 0.0234,0.173 0.0234,0.1731 0.0234,0.202 v 0.1732 0.3461 l -0.0468,0.3176 -0.0701,0.2884 -0.0938,0.2597 -0.0935,0.2308 -0.1405,0.2308 -0.1405,0.202 -0.1639,0.1732 -0.1873,0.1441 -0.2106,0.1443 -0.1873,0.1444 -0.234,0.1153 -0.2341,0.0865 -0.2342,0.0867 -0.234,0.0576 -0.2341,0.0577 h 0.2107 l 0.234,0.0288 0.1873,0.029 0.1873,0.0289 0.1872,0.0576 0.1405,0.0577 0.1405,0.0578 0.1405,0.0577 0.117,0.0865 0.0937,0.0867 0.1169,0.1153 0.0704,0.1155 0.0935,0.1441 0.0703,0.1155 0.0468,0.173 0.0468,0.1443 0.0234,0.1155 0.0234,0.1442 0.0469,0.1731 0.0234,0.202 0.0468,0.2597 0.0234,0.2884 0.0467,0.2887 0.047,0.3462 0.0468,0.3751 0.0467,0.3461 0.0468,0.3176 0.047,0.3461 0.0467,0.2885 0.0702,0.3175 0.0469,0.2596 0.0702,0.2885 h -2.7155 l -0.0468,-0.1441 -0.0468,-0.1732 -0.0233,-0.1732 -0.047,-0.1732 -0.0234,-0.1729 -0.0234,-0.1732 v -0.1731 l -0.0233,-0.1732 -0.1873,-1.5002 -0.0234,-0.202 -0.0234,-0.202 -0.0469,-0.202 -0.0702,-0.1444 -0.0468,-0.1441 -0.0703,-0.1155 -0.0702,-0.1153 -0.0701,-0.0867 -0.0938,-0.0577 -0.1169,-0.0576 -0.1405,-0.0577 -0.1873,-0.029 -0.2106,-0.0288 -0.2107,-0.0289 h -0.281 l -0.281,-0.0288 h -1.5449 v 4.3568 z m 2.5516,-9.1752 v 2.6546 h 1.6387 0.2574 l 0.2576,-0.0291 0.234,-0.0288 0.2107,-0.0288 0.1873,-0.0289 0.1639,-0.0576 0.1405,-0.0577 0.1169,-0.0867 0.1171,-0.0576 0.0702,-0.1155 0.0937,-0.1153 0.0468,-0.1156 0.0469,-0.1441 0.0468,-0.1443 0.0234,-0.1732 v -0.1729 -0.1732 l -0.0234,-0.1732 -0.0468,-0.1443 -0.0236,-0.1153 -0.0701,-0.1156 -0.0702,-0.1153 -0.0703,-0.0864 -0.0936,-0.0867 -0.1171,-0.0577 -0.1405,-0.0576 -0.1639,-0.0579 -0.1872,-0.0288 -0.2107,-0.0577 h -0.2574 l -0.2574,-0.0288 h -0.281 z m 20.8341,5.2224 v 0.2885 l -0.0234,0.2596 -0.047,0.2887 -0.0467,0.2597 -0.0702,0.2308 -0.0468,0.2308 -0.0937,0.2308 -0.0935,0.202 -0.0938,0.2018 -0.0935,0.1732 -0.1171,0.1731 -0.1405,0.1732 -0.2574,0.2885 -0.3044,0.2596 -0.3278,0.2308 -0.3511,0.1732 -0.351,0.1444 -0.3981,0.1441 -0.3979,0.0867 -0.398,0.0576 -0.4213,0.0289 h -0.4213 -0.5854 l -0.5384,-0.0865 -0.5148,-0.0867 -0.4917,-0.1732 -0.4683,-0.2018 -0.4213,-0.2308 -0.2106,-0.1443 -0.1873,-0.1444 -0.1873,-0.1729 -0.1639,-0.1732 -0.1872,-0.1732 -0.1405,-0.202 -0.1639,-0.202 -0.1169,-0.2308 -0.1405,-0.2308 -0.1171,-0.2596 -0.117,-0.2309 -0.0937,-0.2884 -0.0935,-0.2885 -0.0704,-0.2887 -0.0701,-0.3173 -0.0468,-0.3175 -0.0468,-0.3173 -0.0236,-0.3461 -0.0233,-0.3752 v -0.3463 -0.4038 l 0.0233,-0.3464 0.047,-0.3461 0.0234,-0.3463 0.0701,-0.3173 0.0704,-0.3175 0.0701,-0.2885 0.0936,-0.2885 0.0937,-0.2596 0.1171,-0.2599 0.117,-0.2596 0.1405,-0.2309 0.1405,-0.2308 0.1638,-0.202 0.1639,-0.2017 0.1637,-0.1732 0.1873,-0.1732 0.1873,-0.1443 0.1872,-0.173 0.2109,-0.1155 0.4447,-0.2308 0.4682,-0.202 0.4915,-0.1441 0.5384,-0.1156 0.5384,-0.0576 0.5852,-0.0288 0.4213,0.0288 0.3982,0.0288 0.3745,0.0577 0.3745,0.0576 0.3746,0.1155 0.3511,0.1444 0.3276,0.1729 0.3044,0.202 0.281,0.2308 0.2574,0.2885 0.2107,0.3175 0.2106,0.3462 0.1639,0.4039 0.1405,0.4617 0.0936,0.4905 0.0703,0.5483 h -2.6454 l -0.0233,-0.2308 -0.0468,-0.202 -0.0702,-0.1732 -0.0937,-0.1732 -0.0935,-0.1441 -0.0938,-0.1155 -0.1171,-0.1153 -0.1169,-0.1155 -0.1405,-0.0865 -0.1171,-0.0867 -0.1637,-0.0577 -0.1405,-0.0288 -0.3278,-0.0576 -0.3277,-0.0288 -0.3278,0.0288 -0.3042,0.0288 -0.281,0.0865 -0.2574,0.1155 -0.2341,0.1153 -0.1872,0.1732 -0.1873,0.202 -0.1639,0.202 -0.1405,0.2596 -0.1171,0.2596 -0.0936,0.2885 -0.0703,0.2887 -0.0702,0.3461 -0.0467,0.3464 -0.0234,0.3749 v 0.3752 0.3752 l 0.0234,0.3749 0.0467,0.3463 0.0468,0.3173 0.0704,0.3176 0.0701,0.2884 0.1171,0.2885 0.1405,0.2596 0.1403,0.2309 0.1639,0.202 0.1873,0.1731 0.234,0.1444 0.2343,0.1153 0.2808,0.0864 0.281,0.0579 0.3277,0.0289 0.398,-0.0289 0.3511,-0.0579 0.1637,-0.0576 0.1639,-0.0576 0.1405,-0.0865 0.1405,-0.0867 0.1405,-0.1153 0.1169,-0.1444 0.0938,-0.1443 0.0935,-0.173 0.0937,-0.1731 0.0702,-0.2309 0.0467,-0.2308 0.047,-0.2308 z m 5.0796,-7.4153 h 2.6218 v 4.3858 h 4.6116 v -4.3858 h 2.5986 v 11.3681 h -2.5986 v -4.5876 h -4.6116 v 4.5876 h -2.6218 z m 15.5202,11.3681 v -11.3681 h 7.8421 v 2.4237 h -5.3138 v 1.9621 h 5.0562 v 2.337 h -5.0562 v 2.1927 h 5.4542 v 2.4526 z m 12.6644,-3.8087 h 2.6218 v 0.1156 0.2596 l 0.0467,0.202 0.0468,0.202 0.0703,0.1732 0.0702,0.1441 0.0937,0.1443 0.1169,0.1153 0.1405,0.0867 0.1172,0.0865 0.1405,0.0867 0.1637,0.0288 0.1638,0.0577 0.3278,0.0576 h 0.3512 0.2574 l 0.2576,-0.0288 0.2808,-0.0576 0.281,-0.0868 0.1169,-0.0864 0.1172,-0.0865 0.0937,-0.0867 0.0935,-0.1153 0.0702,-0.1155 0.0469,-0.173 0.0234,-0.1443 0.0234,-0.202 -0.0234,-0.1732 -0.0703,-0.1732 -0.0936,-0.1441 -0.1171,-0.1155 -0.1403,-0.1441 -0.1873,-0.0867 -0.1872,-0.1153 -0.1873,-0.0577 -0.4215,-0.1443 -0.3979,-0.1155 -0.3746,-0.0865 -0.3043,-0.0577 -0.5852,-0.1443 -0.6086,-0.202 -0.281,-0.1153 -0.2808,-0.1155 -0.281,-0.1441 -0.2574,-0.1732 -0.2341,-0.202 -0.2106,-0.202 -0.2109,-0.2597 -0.1637,-0.2884 -0.1171,-0.2887 -0.1171,-0.3461 -0.0468,-0.404 -0.0234,-0.404 v -0.2885 l 0.0234,-0.2308 0.0234,-0.2597 0.0468,-0.2308 0.0703,-0.202 0.0702,-0.2308 0.0703,-0.1732 0.0936,-0.202 0.0937,-0.1729 0.1169,-0.1444 0.1171,-0.1443 0.117,-0.1441 0.281,-0.2597 0.3043,-0.2308 0.3276,-0.1732 0.3512,-0.1443 0.3511,-0.1153 0.3746,-0.0867 0.3745,-0.0865 0.3745,-0.0288 0.3512,-0.0288 h 0.3745 0.3746 l 0.3511,0.0288 0.3746,0.0288 0.3511,0.0577 0.3278,0.0867 0.3278,0.1153 0.3042,0.1443 0.281,0.173 0.2574,0.2019 0.2576,0.2309 0.2106,0.2887 0.1873,0.3173 0.1403,0.3463 0.1405,0.4326 0.0704,0.4328 0.0467,0.5195 h -2.4814 v -0.029 -0.1441 l -0.0234,-0.1444 -0.0234,-0.1441 -0.0468,-0.1155 -0.0701,-0.1153 -0.0704,-0.0867 -0.0701,-0.1153 -0.0937,-0.0867 -0.117,-0.0577 -0.1171,-0.0576 -0.1171,-0.0577 -0.1637,-0.0579 -0.1405,-0.0288 -0.1639,-0.0288 -0.1873,-0.0288 h -0.1872 -0.1873 l -0.1873,0.0288 -0.1638,0.0288 -0.1405,0.0288 -0.1405,0.0289 -0.1404,0.0579 -0.1171,0.0576 -0.1171,0.0576 -0.0935,0.0577 -0.0938,0.0867 -0.0701,0.0865 -0.0468,0.1155 -0.0469,0.0865 -0.0468,0.1155 v 0.1153 l -0.0234,0.1155 0.0234,0.1153 0.0234,0.0865 0.0234,0.0867 0.0469,0.0865 0.1403,0.1731 0.2109,0.1732 0.2574,0.1441 0.3278,0.1444 0.3745,0.1155 0.4213,0.1153 0.5384,0.1155 0.5619,0.1153 0.5851,0.1444 0.5619,0.202 0.2576,0.1441 0.2574,0.1443 0.234,0.1732 0.2343,0.2018 0.1872,0.202 0.1873,0.2598 0.1637,0.2885 0.1171,0.3461 0.0468,0.1444 0.0469,0.1443 0.0468,0.1441 0.0234,0.1732 0.0234,0.1732 v 0.1441 l 0.0234,0.1732 v 0.1731 0.2885 l -0.0234,0.2597 -0.0468,0.2308 -0.0468,0.2596 -0.0469,0.202 -0.0702,0.2308 -0.0937,0.1732 -0.0935,0.202 -0.1172,0.1732 -0.0935,0.1729 -0.1405,0.1444 -0.1171,0.1443 -0.3042,0.2597 -0.3044,0.2308 -0.3278,0.1732 -0.3511,0.1729 -0.3746,0.1155 -0.3745,0.0865 -0.3979,0.0867 -0.3746,0.0288 -0.3745,0.0289 h -0.3745 -0.398 l -0.3745,-0.0289 -0.3979,-0.0288 -0.3746,-0.0867 -0.3745,-0.0865 -0.3512,-0.1155 -0.3511,-0.1729 -0.3278,-0.1732 -0.2808,-0.2308 -0.281,-0.2597 -0.1169,-0.1443 -0.1171,-0.1732 -0.0938,-0.1729 -0.0935,-0.1732 -0.0937,-0.1732 -0.0702,-0.2308 -0.0701,-0.202 -0.047,-0.2308 -0.0468,-0.2308 -0.0233,-0.2597 -0.0234,-0.2885 -0.0234,-0.2596 z m 16.6204,3.8087 v -8.9732 h -3.488 v -2.3949 h 9.5977 v 2.3949 h -3.4879 v 8.9732 z m 10.9553,0 v -11.3681 h 5.0329 0.4683 l 0.4915,0.0288 0.4916,0.0579 0.4917,0.0865 0.2574,0.0864 0.234,0.0867 0.2107,0.1153 0.2108,0.1444 0.2107,0.1732 0.1639,0.1729 0.1639,0.2308 0.1637,0.2599 0.0703,0.1441 0.0468,0.1732 0.0701,0.1732 0.0236,0.1731 0.0468,0.173 0.0234,0.1731 0.0233,0.202 v 0.1732 l -0.0233,0.3461 -0.0468,0.3176 -0.047,0.2884 -0.0935,0.2597 -0.1171,0.2308 -0.1169,0.2308 -0.1639,0.202 -0.1639,0.1732 -0.1873,0.1441 -0.1873,0.1443 -0.2106,0.1444 -0.2107,0.1153 -0.2342,0.0865 -0.234,0.0867 -0.2341,0.0576 -0.2576,0.0577 h 0.2342 l 0.2107,0.0288 0.2107,0.029 0.1872,0.0289 0.1639,0.0576 0.1639,0.0577 0.1403,0.0578 0.1171,0.0577 0.1171,0.0865 0.117,0.0867 0.0937,0.1153 0.0935,0.1155 0.0704,0.1441 0.0701,0.1155 0.0704,0.173 0.0467,0.1443 0.0234,0.1155 0.0234,0.1442 0.0234,0.1731 0.0468,0.202 0.0235,0.2597 0.0468,0.2884 0.0234,0.2887 0.0468,0.3462 0.0467,0.3751 0.047,0.3461 0.0468,0.3176 0.0467,0.3461 0.0704,0.2885 0.0467,0.3175 0.0702,0.2596 0.0703,0.2885 h -2.7155 l -0.0701,-0.1441 -0.0236,-0.1732 -0.0468,-0.1732 -0.0233,-0.1732 -0.0234,-0.1729 -0.0234,-0.1732 -0.0234,-0.1731 -0.0234,-0.1732 -0.1639,-1.5002 -0.0235,-0.202 -0.0468,-0.202 -0.0468,-0.202 -0.0468,-0.1444 -0.0469,-0.1441 -0.0702,-0.1155 -0.0701,-0.1153 -0.0704,-0.0867 -0.0935,-0.0577 -0.1171,-0.0576 -0.1639,-0.0577 -0.1639,-0.029 -0.2106,-0.0288 -0.2341,-0.0289 h -0.2574 l -0.281,-0.0288 h -1.5449 v 4.3568 z m 2.5517,-9.1752 v 2.6546 h 1.615 0.281 l 0.2575,-0.0291 0.2342,-0.0288 0.2107,-0.0288 0.1872,-0.0289 0.1639,-0.0576 0.1403,-0.0577 0.1171,-0.0867 0.0938,-0.0576 0.0935,-0.1155 0.0702,-0.1153 0.0703,-0.1156 0.0468,-0.1441 0.0234,-0.1443 0.0233,-0.1732 v -0.1729 -0.1732 l -0.0233,-0.1732 -0.0234,-0.1443 -0.0468,-0.1153 -0.0468,-0.1156 -0.0703,-0.1153 -0.0936,-0.0864 -0.0937,-0.0867 -0.1169,-0.0577 -0.1405,-0.0576 -0.1639,-0.0579 -0.1873,-0.0288 -0.2106,-0.0577 h -0.2341 l -0.2576,-0.0288 h -0.3044 z m 10.2063,9.1752 4.7988,-11.3681 h 3.1134 l 4.5179,11.3681 h -2.9729 l -0.8193,-2.3082 h -5.0095 l -0.8662,2.3082 z m 4.4944,-4.5011 h 3.3007 l -1.5683,-4.3856 z"
   id="path9" />
 </g>
</svg>
